# xmcd
#
# Track frame offsets: 
#        150
#        16998
#        31684
#        49180
#        63334
#
# Disc length: 1069 seconds
#
# Revision: 1
# Processed by: cddbd v1.5.2PL0 Copyright (c) Steve Scherf et al.
# Submitted via: ExactAudioCopy v0.99pb5
#
DISCID=34042b05
DTITLE=White Buffalo - The Lost and Found
DYEAR=2011
DGENRE=Pop-Folk
TTITLE0=How The West Was Won
TTITLE1=Every Night Every Day
TTITLE2=Insane
TTITLE3=The Dark Side Of Town
TTITLE4=The Pilot
EXTD=
EXTT0=
EXTT1=
EXTT2=
EXTT3=
EXTT4=
PLAYORDER=
